<svg width="37" height="38" viewBox="0 0 37 38" fill="none" xmlns="http://www.w3.org/2000/svg">
<g id="socials">
<rect id="Rectangle 1" width="37" height="38" rx="18.5" fill="#C1164D"/>
<path id="Vector" d="M24.2849 9.06842C20.7592 8.37693 17.098 8.37693 13.5723 9.06842C12.0129 9.41417 10.0467 11.3503 9.70766 12.8716C9.09745 15.845 9.09745 18.8876 9.70766 21.861C10.1145 23.3823 12.0807 25.3185 13.5723 25.6642C13.6401 25.6642 13.7079 25.7333 13.7079 25.8025V30.1589C13.7079 30.3663 13.9791 30.5046 14.1147 30.2972L16.1488 28.1536C16.1488 28.1536 17.776 26.4248 18.0472 26.1482C18.0472 26.1482 18.115 26.0791 18.1828 26.0791C20.2168 26.1482 22.3187 25.9408 24.3527 25.595C25.9121 25.2493 27.8783 23.3131 28.2173 21.7919C28.8276 18.8184 28.8276 15.7759 28.2173 12.8025C27.8105 11.3503 25.8443 9.41417 24.2849 9.06842ZM24.3527 22.0684C24.0137 22.7599 23.6069 23.3131 22.9289 23.6589C22.7255 23.728 22.5221 23.7972 22.3187 23.8663C22.0474 23.7972 21.844 23.728 21.6406 23.6589C19.471 22.7599 17.437 21.5153 15.8098 19.7174C14.9283 18.6801 14.1825 17.5046 13.5723 16.2599C13.3011 15.6376 13.0299 15.0844 12.8265 14.462C12.6231 13.9089 12.9621 13.3557 13.3011 12.9408C13.6401 12.5259 14.0469 12.2493 14.5215 12.0418C14.8605 11.8344 15.1995 11.9727 15.4707 12.2493C16.0132 12.9408 16.5556 13.6323 16.9624 14.3929C17.2336 14.8769 17.1658 15.4301 16.6912 15.7759C16.5556 15.845 16.4878 15.9142 16.3522 16.0525C16.2844 16.1216 16.1488 16.1908 16.081 16.3291C15.9453 16.5365 15.9454 16.744 16.0132 16.9514C16.5556 18.5418 17.5726 19.7865 19.132 20.478C19.4032 20.6163 19.6066 20.6855 19.9456 20.6855C20.4202 20.6163 20.6236 20.0631 20.9626 19.7865C21.3016 19.5099 21.7084 19.5099 22.1152 19.7174C22.4543 19.9248 22.7933 20.2014 23.2001 20.478C23.5391 20.7546 23.8781 20.9621 24.2171 21.2387C24.4205 21.377 24.4883 21.7227 24.3527 22.0684ZM21.505 16.8823C21.3694 16.8823 21.4372 16.8823 21.505 16.8823C21.2338 16.8823 21.166 16.744 21.0982 16.5365C21.0982 16.3982 21.0982 16.1908 21.0304 16.0525C20.9626 15.7759 20.827 15.4993 20.5558 15.2918C20.4202 15.2227 20.2846 15.1535 20.149 15.0844C19.9456 15.0152 19.81 15.0152 19.6066 15.0152C19.4032 14.9461 19.3354 14.8078 19.3354 14.6003C19.3354 14.462 19.5388 14.3238 19.6744 14.3238C20.7592 14.3929 21.5728 15.0152 21.7084 16.3291C21.7084 16.3982 21.7084 16.5365 21.7084 16.6057C21.7084 16.744 21.6406 16.8823 21.505 16.8823ZM20.827 13.8397C20.488 13.7014 20.149 13.5631 19.7422 13.494C19.6066 13.494 19.4032 13.4248 19.2676 13.4248C19.0642 13.4248 18.9286 13.2865 18.9964 13.0791C18.9964 12.8716 19.132 12.7333 19.3354 12.8025C20.0134 12.8716 20.6236 13.0099 21.2338 13.2865C22.4543 13.9089 23.1323 14.9461 23.3357 16.3291C23.3357 16.3982 23.3357 16.4674 23.3357 16.5365C23.3357 16.6748 23.3357 16.8131 23.3357 17.0206C23.3357 17.0897 23.3357 17.1589 23.3357 17.228C23.2679 17.5046 22.7933 17.5738 22.7255 17.228C22.7255 17.1589 22.6577 17.0206 22.6577 16.9514C22.6577 16.3291 22.5221 15.7067 22.2509 15.1535C21.844 14.5312 21.3694 14.1163 20.827 13.8397ZM24.4883 17.9887C24.2849 17.9887 24.1493 17.7812 24.1493 17.5738C24.1493 17.1589 24.0815 16.744 24.0137 16.3291C23.7425 14.1163 21.9796 12.3184 19.8778 11.9727C19.5388 11.9035 19.1998 11.9035 18.9286 11.8344C18.7252 11.8344 18.454 11.8344 18.3862 11.5578C18.3184 11.3503 18.5218 11.1429 18.7252 11.1429C18.793 11.1429 18.8608 11.1429 18.8608 11.1429C18.9964 11.1429 21.6406 11.212 18.8608 11.1429C21.7084 11.212 24.0815 13.1482 24.5561 16.0525C24.6239 16.5365 24.6917 17.0206 24.6917 17.5738C24.8273 17.7812 24.6917 17.9887 24.4883 17.9887Z" fill="#F8F8F8"/>
</g>
</svg>
