<svg width="37" height="38" viewBox="0 0 37 38" fill="none" xmlns="http://www.w3.org/2000/svg">
<g id="socials">
<rect id="Rectangle 1" width="37" height="38" rx="18.5" fill="#C1164D"/>
<g id="instagram">
<path d="M18.5 11.2169C20.9518 11.2169 21.2861 11.2169 22.2892 11.2169C23.1807 11.2169 23.6265 11.4458 23.9608 11.5602C24.4066 11.7892 24.741 11.9036 25.0753 12.247C25.4096 12.5904 25.6325 12.9337 25.744 13.3916C25.8554 13.7349 25.9669 14.1928 26.0783 15.1084C26.0783 16.1386 26.0783 16.3675 26.0783 19C26.0783 21.6325 26.0783 21.8614 26.0783 22.8916C26.0783 23.8072 25.8554 24.2651 25.744 24.6084C25.5211 25.0663 25.4096 25.4096 25.0753 25.753C24.741 26.0964 24.4066 26.3253 23.9608 26.4398C23.6265 26.5542 23.1807 26.6687 22.2892 26.7831C21.2861 26.7831 21.0633 26.7831 18.5 26.7831C15.9367 26.7831 15.7139 26.7831 14.7108 26.7831C13.8193 26.7831 13.3735 26.5542 13.0392 26.4398C12.5934 26.2108 12.259 26.0964 11.9247 25.753C11.5904 25.4096 11.3675 25.0663 11.256 24.6084C11.1446 24.2651 11.0331 23.8072 10.9217 22.8916C10.9217 21.8614 10.9217 21.6325 10.9217 19C10.9217 16.3675 10.9217 16.1386 10.9217 15.1084C10.9217 14.1928 11.1446 13.7349 11.256 13.3916C11.4789 12.9337 11.5904 12.5904 11.9247 12.247C12.259 11.9036 12.5934 11.6747 13.0392 11.5602C13.3735 11.4458 13.8193 11.3313 14.7108 11.2169C15.7139 11.2169 16.0482 11.2169 18.5 11.2169ZM18.5 9.5C15.9367 9.5 15.7139 9.5 14.7108 9.5C13.7078 9.5 13.0392 9.72892 12.4819 9.95783C11.9247 10.1867 11.3675 10.5301 10.8102 11.1024C10.253 11.6747 10.0301 12.1325 9.69578 12.8193C9.47289 13.3916 9.36145 14.0783 9.25 15.1084C9.25 16.1386 9.25 16.4819 9.25 19C9.25 21.6325 9.25 21.8614 9.25 22.8916C9.25 23.9217 9.47289 24.6084 9.69578 25.1807C9.91868 25.753 10.253 26.3253 10.8102 26.8976C11.3675 27.4699 11.8133 27.6988 12.4819 28.0422C13.0392 28.2711 13.7078 28.3855 14.7108 28.5C15.7139 28.5 16.0482 28.5 18.5 28.5C20.9518 28.5 21.2861 28.5 22.2892 28.5C23.2922 28.5 23.9608 28.2711 24.5181 28.0422C25.0753 27.8133 25.6325 27.4699 26.1898 26.8976C26.747 26.3253 26.9699 25.8675 27.3042 25.1807C27.5271 24.6084 27.6386 23.9217 27.75 22.8916C27.75 21.8614 27.75 21.5181 27.75 19C27.75 16.4819 27.75 16.1386 27.75 15.1084C27.75 14.0783 27.5271 13.3916 27.3042 12.8193C27.0813 12.247 26.747 11.6747 26.1898 11.1024C25.6325 10.5301 25.1867 10.3012 24.5181 9.95783C23.9608 9.72892 23.2922 9.61446 22.2892 9.5C21.2861 9.5 21.0633 9.5 18.5 9.5Z" fill="#F8F8F8"/>
<path d="M18.5 14.0783C15.8253 14.0783 13.7078 16.253 13.7078 19C13.7078 21.747 15.8253 23.9217 18.5 23.9217C21.1747 23.9217 23.2922 21.747 23.2922 19C23.2922 16.253 21.1747 14.0783 18.5 14.0783ZM18.5 22.2048C16.8283 22.2048 15.3795 20.8313 15.3795 19C15.3795 17.2831 16.7169 15.7952 18.5 15.7952C20.1717 15.7952 21.6205 17.1687 21.6205 19C21.6205 20.7169 20.1717 22.2048 18.5 22.2048Z" fill="#F8F8F8"/>
<path d="M23.4036 15.1084C24.0191 15.1084 24.5181 14.596 24.5181 13.9639C24.5181 13.3317 24.0191 12.8193 23.4036 12.8193C22.7881 12.8193 22.2892 13.3317 22.2892 13.9639C22.2892 14.596 22.7881 15.1084 23.4036 15.1084Z" fill="#F8F8F8"/>
</g>
</g>
</svg>
